<svg width="19" height="19" viewBox="0 0 19 19" fill="none" xmlns="http://www.w3.org/2000/svg">
<path d="M14.25 2.375C14.25 2.05957 14.1248 1.75806 13.9021 1.5354C13.4382 1.07153 12.6868 1.07153 12.2229 1.5354L5.0979 8.6604C4.87524 8.88306 4.75 9.18457 4.75 9.5C4.75 9.81543 4.87524 10.1169 5.0979 10.3396L12.2229 17.4646C12.6868 17.9285 13.4382 17.9285 13.9021 17.4646C14.1248 17.2419 14.25 16.9404 14.25 16.625C14.25 16.3096 14.1248 16.0081 13.9021 15.7854L7.6167 9.5L13.9021 3.2146C14.1248 2.99194 14.25 2.69043 14.25 2.375Z" fill="white"/>
</svg>
