<svg width="18" height="17" viewBox="0 0 18 17" fill="none" xmlns="http://www.w3.org/2000/svg">
<path d="M17.1875 5.75214C17.1875 8.60906 14.7586 10.9248 11.762 10.9248C11.6201 10.9248 11.4699 10.9169 11.328 10.9089C11.1193 8.38624 8.99921 6.3649 6.35323 6.16595C6.34489 6.03066 6.33655 5.88743 6.33655 5.75214C6.33655 2.89522 8.7655 0.579445 11.762 0.579445C14.7586 0.579445 17.1875 2.89522 17.1875 5.75214Z" stroke="#838383" stroke-linecap="round" stroke-linejoin="round"/>
<path d="M11.3454 11.3227C11.3454 14.1797 8.91641 16.4954 5.91987 16.4954C2.92333 16.4954 0.494385 14.1797 0.494385 11.3227C0.494385 8.46582 2.92333 6.15004 5.91987 6.15004C6.06177 6.15004 6.212 6.15799 6.3539 6.16595C8.99988 6.3649 11.12 8.38624 11.3287 10.9089C11.337 11.0442 11.3454 11.1875 11.3454 11.3227Z" stroke="#838383" stroke-linecap="round" stroke-linejoin="round"/>
<path d="M5.18533 10.6224L5.91986 9.33325L6.65438 10.6224L8.00658 11.3227L6.65438 12.023L5.91986 13.3122L5.18533 12.023L3.83313 11.3227L5.18533 10.6224Z" stroke="#838383" stroke-linecap="round" stroke-linejoin="round"/>
</svg>
