<svg width="8" height="12" viewBox="0 0 8 12" fill="none" xmlns="http://www.w3.org/2000/svg">
<path d="M7.41996 8.115C7.36471 8.07783 7.30259 8.05207 7.23725 8.03924C7.17191 8.0264 7.10467 8.02675 7.03946 8.04026C6.97426 8.05376 6.91241 8.08016 6.85754 8.11789C6.80268 8.15563 6.7559 8.20394 6.71996 8.26C6.23661 8.97582 5.64448 9.61181 4.96496 10.145C4.79996 10.27 4.18496 10.745 3.92496 10.645C3.74496 10.59 3.84996 10.235 3.88496 10.085L4.14996 9.3C4.25996 8.98 6.17496 3.3 6.38496 2.65C6.69496 1.7 6.55996 0.765 5.14496 0.99C4.75996 1.03 0.854961 1.535 0.784961 1.54C0.7193 1.54427 0.655123 1.56143 0.596094 1.5905C0.537064 1.61957 0.484338 1.65998 0.440927 1.70943C0.397516 1.75887 0.364269 1.81639 0.343084 1.87868C0.3219 1.94098 0.313193 2.00684 0.317461 2.0725C0.321729 2.13816 0.338889 2.20234 0.367959 2.26137C0.397029 2.3204 0.437442 2.37312 0.486889 2.41653C0.536336 2.45995 0.593849 2.49319 0.656146 2.51438C0.718442 2.53556 0.7843 2.54427 0.849961 2.54C0.849961 2.54 2.34996 2.345 2.51496 2.33C2.59948 2.32175 2.68457 2.33813 2.75999 2.37717C2.8354 2.4162 2.8979 2.47623 2.93996 2.55C3.03056 2.83006 3.01815 3.13328 2.90496 3.405C2.77496 3.905 0.719962 9.695 0.654962 10.03C0.585245 10.3103 0.604601 10.6054 0.71034 10.8742C0.816078 11.1431 1.00294 11.3723 1.24496 11.53C1.69922 11.8328 2.24009 11.9785 2.78496 11.945C3.31475 11.9385 3.83869 11.8334 4.32996 11.635C5.57496 11.135 6.87496 9.805 7.55996 8.76C7.61895 8.65383 7.63727 8.52981 7.61151 8.41112C7.58574 8.29242 7.51766 8.18716 7.41996 8.115Z" fill="#929292"/>
</svg>
