<svg width="19" height="19" viewBox="0 0 19 19" fill="none" xmlns="http://www.w3.org/2000/svg">
<path d="M9.43684 6.13263C7.47205 6.13263 5.8645 7.74412 5.8645 9.71373C5.8645 11.6833 7.47205 13.2948 9.43684 13.2948C11.4016 13.2948 13.0092 11.6833 13.0092 9.71373C13.0092 7.74412 11.4016 6.13263 9.43684 6.13263ZM9.43684 12.1011C8.12698 12.1011 7.05528 11.0268 7.05528 9.71373C7.05528 8.40066 8.12698 7.32633 9.43684 7.32633C10.7467 7.32633 11.8184 8.40066 11.8184 9.71373C11.8184 11.0268 10.7467 12.1011 9.43684 12.1011Z" fill="#8A8A8A"/>
<path d="M9.43676 14.9063C7.21893 14.9063 5.09042 15.8314 3.57218 17.4579L3.17029 17.8906L4.0336 18.7112L4.43549 18.2785C5.74535 16.8759 7.51663 16.1 9.43676 16.1C11.3569 16.1 13.1282 16.8759 14.438 18.2785L14.8399 18.7112L15.7032 17.8906L15.3013 17.4579C13.7831 15.8464 11.6546 14.9063 9.43676 14.9063Z" fill="#8A8A8A"/>
<path d="M14.3489 7.01298V8.20668C15.748 8.20668 17.043 8.77369 18.0105 9.80325L18.8738 8.98259C17.7128 7.7292 16.0606 7.01298 14.3489 7.01298Z" fill="#8A8A8A"/>
<path d="M17.1917 2.84996C17.1917 1.28323 15.9116 0 14.3487 0C12.7858 0 11.5057 1.28323 11.5057 2.84996C11.5057 4.41669 12.7858 5.69991 14.3487 5.69991C15.9116 5.69991 17.1917 4.41669 17.1917 2.84996ZM12.6965 2.84996C12.6965 1.93976 13.4408 1.1937 14.3487 1.1937C15.2567 1.1937 16.0009 1.93976 16.0009 2.84996C16.0009 3.76015 15.2567 4.50622 14.3487 4.50622C13.4408 4.50622 12.6965 3.76015 12.6965 2.84996Z" fill="#8A8A8A"/>
<path d="M4.52496 7.01298C2.81321 7.01298 1.16101 7.7292 0 8.98259L0.863314 9.80325C1.81594 8.77369 3.12579 8.20668 4.52496 8.20668V7.01298Z" fill="#8A8A8A"/>
<path d="M7.36785 2.84996C7.36785 1.28323 6.08776 0 4.52487 0C2.96197 0 1.68188 1.28323 1.68188 2.84996C1.68188 4.41669 2.96197 5.69991 4.52487 5.69991C6.08776 5.69991 7.36785 4.41669 7.36785 2.84996ZM4.52487 4.50622C3.6169 4.50622 2.87266 3.76015 2.87266 2.84996C2.87266 1.93976 3.6169 1.1937 4.52487 1.1937C5.43284 1.1937 6.17707 1.93976 6.17707 2.84996C6.17707 3.76015 5.43284 4.50622 4.52487 4.50622Z" fill="#8A8A8A"/>
</svg>
