<svg width="16" height="20" viewBox="0 0 16 20" fill="none" xmlns="http://www.w3.org/2000/svg">
<path d="M8.67735 7.44582C8.815 7.0519 9.39813 7.0519 9.53578 7.44582L10.3429 9.75802C10.5206 10.2663 10.8199 10.7281 11.2172 11.1069C11.6144 11.4856 12.0987 11.7709 12.6316 11.9401L15.0543 12.71C15.4672 12.8413 15.4672 13.3976 15.0543 13.5289L12.6304 14.2989C12.0976 14.4683 11.6134 14.7539 11.2164 15.1328C10.8193 15.5118 10.5203 15.9738 10.3429 16.4821L9.53578 18.7931C9.5061 18.8794 9.44863 18.9545 9.37155 19.0078C9.29447 19.061 9.20173 19.0897 9.10656 19.0897C9.01139 19.0897 8.91865 19.061 8.84158 19.0078C8.7645 18.9545 8.70702 18.8794 8.67735 18.7931L7.87022 16.4809C7.69269 15.9728 7.39356 15.511 6.99651 15.1323C6.59947 14.7536 6.11543 14.4682 5.58274 14.2989L3.15886 13.5289C3.06843 13.5006 2.98969 13.4458 2.93386 13.3723C2.87804 13.2987 2.84798 13.2103 2.84798 13.1195C2.84798 13.0287 2.87804 12.9402 2.93386 12.8667C2.98969 12.7932 3.06843 12.7383 3.15886 12.71L5.58274 11.9401C6.11543 11.7707 6.59947 11.4854 6.99651 11.1067C7.39356 10.7279 7.69269 10.2662 7.87022 9.75802L8.67735 7.44582ZM3.84335 1.35915C3.86129 1.30746 3.89586 1.26247 3.94214 1.23059C3.98841 1.1987 4.04405 1.18154 4.10113 1.18154C4.15821 1.18154 4.21385 1.1987 4.26012 1.23059C4.3064 1.26247 4.34097 1.30746 4.35891 1.35915L4.84319 2.74623C5.05967 3.36456 5.56772 3.84921 6.21593 4.05572L7.67 4.51768C7.7242 4.5348 7.77135 4.56777 7.80478 4.61191C7.8382 4.65606 7.85619 4.70913 7.85619 4.76358C7.85619 4.81803 7.8382 4.8711 7.80478 4.91525C7.77135 4.95939 7.7242 4.99236 7.67 5.00948L6.21593 5.47144C5.89624 5.57305 5.60574 5.74428 5.36747 5.97157C5.1292 6.19887 4.9497 6.47597 4.84319 6.78093L4.35891 8.16801C4.34097 8.2197 4.3064 8.26469 4.26012 8.29657C4.21385 8.32846 4.15821 8.34562 4.10113 8.34562C4.04405 8.34562 3.98841 8.32846 3.94214 8.29657C3.89586 8.26469 3.86129 8.2197 3.84335 8.16801L3.35907 6.78093C3.25256 6.47597 3.07306 6.19887 2.83479 5.97157C2.59652 5.74428 2.30602 5.57305 1.98633 5.47144L0.532255 5.00948C0.478064 4.99236 0.430907 4.95939 0.397483 4.91525C0.364059 4.8711 0.346069 4.81803 0.346069 4.76358C0.346069 4.70913 0.364059 4.65606 0.397483 4.61191C0.430907 4.56777 0.478064 4.5348 0.532255 4.51768L1.98633 4.05572C2.30602 3.95411 2.59652 3.78288 2.83479 3.55559C3.07306 3.32829 3.25256 3.05119 3.35907 2.74623L3.84335 1.35915ZM12.6892 0.106959C12.7016 0.0729699 12.7247 0.043497 12.7554 0.0226379C12.7862 0.0017788 12.8229 -0.00942993 12.8606 -0.00942993C12.8984 -0.00942993 12.9351 0.0017788 12.9658 0.0226379C12.9966 0.043497 13.0197 0.0729699 13.0321 0.106959L13.3549 1.03088C13.4988 1.4439 13.8379 1.76739 14.2709 1.90467L15.2395 2.21264C15.2751 2.22443 15.306 2.24651 15.3279 2.27582C15.3497 2.30513 15.3615 2.34021 15.3615 2.37618C15.3615 2.41216 15.3497 2.44724 15.3279 2.47654C15.306 2.50585 15.2751 2.52793 15.2395 2.53972L14.2709 2.84769C14.0575 2.9154 13.8637 3.02963 13.7047 3.18131C13.5457 3.33299 13.4259 3.51794 13.3549 3.72148L13.0321 4.6454C13.0197 4.67939 12.9966 4.70887 12.9658 4.72972C12.9351 4.75058 12.8984 4.76179 12.8606 4.76179C12.8229 4.76179 12.7862 4.75058 12.7554 4.72972C12.7247 4.70887 12.7016 4.67939 12.6892 4.6454L12.3664 3.72148C12.2954 3.51794 12.1756 3.33299 12.0166 3.18131C11.8576 3.02963 11.6637 2.9154 11.4504 2.84769L10.4831 2.53972C10.4474 2.52793 10.4165 2.50585 10.3947 2.47654C10.3728 2.44724 10.361 2.41216 10.361 2.37618C10.361 2.34021 10.3728 2.30513 10.3947 2.27582C10.4165 2.24651 10.4474 2.22443 10.4831 2.21264L11.4516 1.90467C11.8846 1.76739 12.2237 1.4439 12.3676 1.03088L12.6892 0.108153V0.106959Z" fill="#929292"/>
</svg>
