<svg width="21" height="16" viewBox="0 0 21 16" fill="none" xmlns="http://www.w3.org/2000/svg">
<path fill-rule="evenodd" clip-rule="evenodd" d="M3.6143 0.375259C2.56996 0.375259 1.72336 1.08784 1.72336 1.96686V3.42932L0.295751 7.03411C-0.0725476 7.96416 0.633606 8.92159 1.72336 9.09961V13.9039C1.72336 14.7829 2.56996 15.4955 3.6143 15.4955H7.39618H8.34165H12.1235H13.069H16.8509C17.8953 15.4955 18.7418 14.7829 18.7418 13.9039V9.09961C19.8316 8.92159 20.5378 7.96416 20.1694 7.03411L18.7418 3.42932V1.96686C18.7418 1.08784 17.8953 0.375259 16.8509 0.375259H3.6143ZM13.069 13.9039H16.8509V9.12906H15.4327H10.2326H5.0325H3.6143V13.9039H7.39618V11.5165C7.39618 10.1979 8.66604 9.12906 10.2326 9.12906C11.7991 9.12906 13.069 10.1979 13.069 11.5165V13.9039ZM9.28712 13.9039H11.1781V11.5165C11.1781 11.0769 10.7548 10.7207 10.2326 10.7207C9.71041 10.7207 9.28712 11.0769 9.28712 11.5165V13.9039ZM2.08966 7.53746L3.35028 4.35426H4.86188L4.23157 7.53746H2.66883H2.08966ZM6.14859 7.53746L6.77891 4.35426H9.28712V7.53746H6.14859ZM11.1781 7.53746V4.35426H13.6863L14.3166 7.53746H11.1781ZM16.2336 7.53746L15.6033 4.35426H17.1149L18.3756 7.53746H17.7964H16.2336ZM16.8509 1.96686V2.76266H14.4872H10.2326H5.97797H3.6143V1.96686H16.8509Z" fill="#8A8A8A"/>
</svg>
